<svg width="2146" height="2146" viewBox="0 0 2146 2146" fill="none" xmlns="http://www.w3.org/2000/svg">
<path d="M992.097 186.116C1040.06 182.09 1088.27 181.965 1136.25 185.739L1140.9 186.117C1571.72 222.278 1913.89 562.903 1952.44 993.032L1952.88 998.097C1957.04 1047.61 1957.04 1097.38 1952.88 1146.9C1916.72 1577.72 1576.09 1919.9 1145.96 1958.44L1140.9 1958.88C1091.38 1963.04 1041.61 1963.04 992.097 1958.88C559.579 1922.58 216.419 1579.41 180.116 1146.9C175.96 1097.38 175.961 1047.61 180.117 998.097C216.423 565.582 559.583 222.422 992.098 186.117L992.097 186.116Z" fill="#F9F900" stroke="#183CC7" stroke-width="46"/>
<path d="M724.918 616.568L726.378 614.535C730.988 612.165 765.258 608.086 772.178 608.275C800.578 608.226 825.598 606.846 853.638 611.335C893.778 617.761 932.868 628.14 965.148 654.313C970.838 658.852 975.998 663.66 981.318 667.914L981.658 669.732C986.758 670.845 987.348 675.121 991.038 677.445C1008.89 688.687 1024.45 705.918 1035.56 723.73C1045.05 738.956 1059.06 769.759 1060.25 787.735L1060.33 788.841C1065.5 801.319 1065.41 813.562 1065.01 826.905C1063.37 882.544 1067.24 940.711 1064.74 996.093C1049.3 996.182 888.358 997.624 885.528 994.508C880.278 988.73 881.998 979.83 882.198 972.618L882.248 971.977C872.498 971.526 859.688 971.826 849.718 971.808L849.738 851.329C849.738 830.576 850.018 809.657 849.228 788.936C849.008 783.133 845.558 783.001 845.608 774.641L845.258 773.6C836.798 773.24 828.938 772.459 820.638 774.661C797.928 780.688 787.958 802.586 787.768 824.481V1176.99L787.748 1302.46C787.728 1325.82 787.418 1349.67 788.278 1373.01C788.408 1376.67 789.968 1376.55 790.498 1377.88C793.688 1385.94 793.428 1396.87 804.008 1401.85C805.618 1401.21 809.288 1398.97 809.978 1398.85C822.528 1396.53 835.288 1394.28 845.628 1386.09C848.278 1383.52 849.208 1382.31 849.338 1378.6C850.098 1358 849.778 1337.05 849.768 1316.42L849.718 1186.4L834.798 1186.19C834.858 1180.73 835.358 1174.52 833.938 1169.38C823.108 1169.63 811.448 1169.46 800.558 1169.48C798.738 1129.29 800.198 1074.62 800.218 1033.39H954.238C973.418 1033.4 1014.99 1034.61 1031.96 1032.81C1033.72 1033.44 1034.69 1033.32 1035.05 1034.65C1036.41 1039.6 1035.85 1049.17 1035.76 1054.4H1064.21V1541.27C1037.43 1541.25 1008.65 1541.79 982.038 1541.15C981.938 1537.41 982.268 1532.78 980.508 1529.71L978.168 1528.76C968.778 1529 958.548 1528.76 949.088 1528.73C949.058 1523.02 944.588 1506.08 942.988 1499.49C937.638 1500.26 924.558 1513.08 918.728 1517.15C852.918 1563.07 753.798 1556.7 683.378 1525.39C683.128 1525.32 682.868 1525.26 682.608 1525.19C665.038 1524.92 631.531 1502.6 619.162 1490.11C564.116 1434.52 569.104 1353.68 569.129 1282.56L569.201 1273.56L569.13 1260.4L569.17 1252.54L569.148 1101.14L569.184 1091.21L569.123 1079.85C569.125 1075.41 569.084 1070.97 569 1066.53C569.804 1047.57 569.2 1024.46 569.218 1005.18L569.285 1000.76L569.093 988.792C570.089 935.296 569.664 875.357 569.062 821.818C569.239 814.149 569.302 806.477 569.253 798.806L569.139 790.673C571.392 726.598 612.438 654.487 675.098 632.764L676.038 630.365C683.798 625.863 715.118 616.209 724.918 616.568Z" fill="#FEFEFE"/>
<path d="M724.918 616.568L726.378 614.535C730.988 612.165 765.258 608.086 772.178 608.275C800.578 608.226 825.598 606.846 853.638 611.335C893.778 617.761 932.868 628.14 965.148 654.313C970.838 658.852 975.998 663.66 981.318 667.914L981.658 669.732C978.838 669.403 979.968 669.735 977.998 668.644C954.448 655.566 931.738 647.806 905.178 643.037C884.788 639.376 868.678 636.225 847.678 637.394C832.878 638.218 816.678 636.515 801.748 637.757C766.858 641.442 731.328 649.233 700.388 665.74C668.048 683.056 642.024 710.183 626.067 743.221C615.186 765.81 608.595 800.46 608.193 825.591C607.684 857.497 608.011 889.82 608.03 921.775L608.054 1105.09L608.043 1275.24C608.054 1333.44 603.817 1392.11 622.769 1447.95C630.236 1469.92 642.949 1489.73 659.808 1505.67C665.998 1511.5 673.518 1517.31 681.058 1521.64C681.578 1522.83 682.098 1524.01 682.608 1525.19C665.038 1524.92 631.531 1502.6 619.162 1490.11C564.116 1434.52 569.104 1353.68 569.129 1282.56L569.201 1273.56L569.13 1260.4L569.17 1252.54L569.148 1101.14L569.184 1091.21L569.123 1079.85C569.125 1075.41 569.084 1070.97 569 1066.53C569.804 1047.57 569.2 1024.46 569.218 1005.18L569.285 1000.76L569.093 988.792C570.089 935.296 569.664 875.357 569.062 821.818C569.239 814.149 569.302 806.477 569.253 798.806L569.139 790.673C571.392 726.598 612.438 654.487 675.098 632.764L676.038 630.365C683.798 625.863 715.118 616.209 724.918 616.568Z" fill="#0000FE"/>
<path d="M1031.96 1032.81C1033.72 1033.44 1034.69 1033.32 1035.05 1034.65C1036.41 1039.6 1035.85 1049.17 1035.76 1054.4L1030.9 1054.42L902.208 1054.41C880.418 1054.41 856.158 1053.89 834.528 1054.55L834.468 1140.88C834.458 1148.87 833.738 1162.39 833.938 1169.38C823.108 1169.63 811.448 1169.46 800.558 1169.48C798.738 1129.29 800.198 1074.62 800.218 1033.39H954.238C973.418 1033.4 1014.99 1034.61 1031.96 1032.81Z" fill="#0000FE"/>
<path d="M1031.96 1032.81C1033.72 1033.44 1034.69 1033.32 1035.05 1034.65C1036.41 1039.6 1035.85 1049.17 1035.76 1054.4L1030.9 1054.42C1031.75 1047.54 1030.59 1041.23 1031.96 1032.81Z" fill="#717086"/>
<path d="M849.718 1186.4C859.018 1186.41 874.628 1186.9 883.418 1185.9C881.858 1195.72 882.628 1228.67 882.638 1240.37L882.738 1351.8C882.758 1366.19 883.168 1380.88 882.158 1395.2C881.578 1403.51 865.848 1408.75 858.798 1410.56L856.638 1413.14C842.008 1413.64 821.648 1417.07 809.448 1407.4C807.038 1405.49 806.798 1405.32 803.908 1404.03L804.008 1401.85C805.618 1401.21 809.288 1398.97 809.978 1398.85C822.528 1396.53 835.288 1394.28 845.628 1386.09C848.278 1383.52 849.208 1382.31 849.338 1378.6C850.098 1358 849.778 1337.05 849.768 1316.42L849.718 1186.4Z" fill="#0000FE"/>
<path d="M845.608 774.641L848.658 774.363C850.528 776.19 851.758 776.554 854.298 777.061C866.258 779.408 881.168 797.499 881.738 809.32C883.568 847.025 882.488 885.083 882.688 922.87C882.768 937.38 883.738 957.885 882.248 971.977C872.498 971.526 859.688 971.826 849.718 971.808L849.738 851.329C849.738 830.576 850.018 809.657 849.228 788.936C849.008 783.133 845.558 783.001 845.608 774.641Z" fill="#0000FE"/>
<path d="M942.988 1499.49C944.978 1493.53 948.728 1488.27 953.658 1484.52C959.508 1480.07 957.948 1475.93 963.038 1472.06L964.178 1472.64C967.388 1485.79 977.958 1518.91 978.168 1528.76C968.778 1529 958.548 1528.76 949.088 1528.73C949.058 1523.02 944.588 1506.08 942.988 1499.49Z" fill="#0000FE"/>
<path d="M1060.33 788.841C1065.5 801.319 1065.41 813.562 1065.01 826.905C1063.37 882.544 1067.24 940.711 1064.74 996.093C1049.3 996.182 888.358 997.624 885.528 994.508C880.278 988.73 881.998 979.83 882.198 972.618L882.248 971.977L886.608 971.693L886.568 991.686C890.388 992.817 929.038 992.403 936.078 992.4L1063.94 992.328L1063.95 823.789C1063.94 819.889 1064.08 812.819 1063.32 809.304C1061.37 800.161 1059.91 798.344 1060.33 788.841Z" fill="#E6E224"/>
<path d="M882.248 971.977L886.608 971.693L886.568 991.686L883.898 990.891C881.838 984.53 884.588 979.836 882.198 972.618L882.248 971.977Z" fill="#D6D32F"/>
<path d="M883.418 1185.9L886.128 1187.12C887.138 1194.07 886.708 1207.81 886.668 1215.24L886.548 1261.96L886.678 1345.15C886.698 1359.5 888.568 1385.47 884.198 1398.72C882.218 1404.72 864.248 1413.23 856.638 1413.14L858.798 1410.56C865.848 1408.75 881.578 1403.51 882.158 1395.2C883.168 1380.88 882.758 1366.19 882.738 1351.8L882.638 1240.37C882.628 1228.67 881.858 1195.72 883.418 1185.9Z" fill="#8080FF"/>
<path d="M845.258 773.6C861.608 770.418 879.428 788.717 882.518 803.71C888.128 830.901 886.688 858.627 886.678 886.242L886.608 971.693L882.248 971.977C883.738 957.885 882.768 937.38 882.688 922.87C882.488 885.083 883.568 847.025 881.738 809.32C881.168 797.499 866.258 779.408 854.298 777.061C851.758 776.554 850.528 776.19 848.658 774.363L845.608 774.641L845.258 773.6Z" fill="#8080FF"/>
<path d="M1097.19 1528.62L1097.15 823.201C1097.15 805.486 1095.67 623.228 1098.15 616.887C1109.67 614.232 1131.38 615.03 1143.98 615.023L1207.47 615.024C1275.69 615.058 1344.91 614.091 1413.14 617.129C1417.98 617.345 1421.36 618.826 1425.67 620.928C1438.51 620.524 1445.39 626.582 1455.37 628.774C1478.75 633.911 1496.29 645.703 1514.27 661.367C1519.58 665.998 1534.18 684.106 1535.82 690.974L1537.85 691.735C1541.21 700.869 1545.5 704.895 1550.64 713.238C1578.09 757.761 1576.22 804.954 1576.21 854.608L1576.2 939.28L1576.21 1042.46C1576.2 1083.24 1577.62 1106.9 1571.07 1147.54C1570 1148.24 1568.93 1148.94 1567.85 1149.64C1563.32 1209.14 1501.58 1254.77 1445.83 1260.35C1437.25 1261.21 1428.24 1264.26 1419.47 1264.5C1382.39 1265.22 1344.74 1264.87 1307.67 1264.82V1541.27H1129.02C1128.86 1537.3 1128.63 1533.48 1128.84 1529.51C1117.93 1529.12 1108.41 1529.78 1097.19 1528.62Z" fill="#FEFEFE"/>
<path d="M1097.19 1528.62L1097.15 823.201C1097.15 805.486 1095.67 623.228 1098.15 616.887C1109.67 614.232 1131.38 615.03 1143.98 615.023L1207.47 615.024C1275.69 615.058 1344.91 614.091 1413.14 617.129C1417.98 617.345 1421.36 618.826 1425.67 620.928C1438.51 620.524 1445.39 626.582 1455.37 628.774C1478.75 633.911 1496.29 645.703 1514.27 661.367C1519.58 665.998 1534.18 684.106 1535.82 690.974L1532.91 690.634C1470.04 629.477 1364.69 648.665 1284.03 645.846C1233.33 644.074 1180.4 646.705 1129.26 645.582C1130.46 664.2 1129.64 692.002 1129.62 711.386L1129.59 829.46L1129.57 1202.43L1129.64 1442.6C1129.65 1453.45 1131.13 1521.93 1128.84 1529.51C1117.93 1529.12 1108.41 1529.78 1097.19 1528.62Z" fill="#0000FE"/>
<path d="M1097.19 1528.62L1097.15 823.201C1097.15 805.486 1095.67 623.228 1098.15 616.887C1109.67 614.232 1131.38 615.03 1143.98 615.023L1207.47 615.024C1275.69 615.058 1344.91 614.091 1413.14 617.129C1417.98 617.345 1421.36 618.826 1425.67 620.928C1413.26 621.898 1405.25 618.8 1393.55 617.852C1382.81 616.982 1369.16 617.123 1358.3 617.118L1101.66 617.138V1528.28H1126.59L1126.61 840.166C1126.61 821.802 1124.64 654.819 1127.27 646.843L1129.26 645.582C1130.46 664.2 1129.64 692.002 1129.62 711.386L1129.59 829.46L1129.57 1202.43L1129.64 1442.6C1129.65 1453.45 1131.13 1521.93 1128.84 1529.51C1117.93 1529.12 1108.41 1529.78 1097.19 1528.62Z" fill="#717086"/>
<path d="M1307.67 773.329C1319.91 773.267 1367.21 770.83 1373.68 779.664C1380.55 781.987 1384.4 784.131 1387.7 790.777C1388.48 792.358 1390.17 797.35 1391.31 798.354C1391.59 798.598 1394.08 799.685 1394.19 799.848C1397.85 805.28 1398.45 1090.23 1393.78 1109.06C1391.62 1117.76 1382.16 1127.9 1374.15 1131.6C1355.11 1140.4 1328.32 1136.91 1307.67 1136.79V1116.37L1307.68 1111.82L1307.67 773.329Z" fill="#E3E10E"/>
<path d="M1373.68 779.664C1380.55 781.987 1384.4 784.131 1387.7 790.777C1388.48 792.358 1390.17 797.35 1391.31 798.354C1391.59 798.598 1394.08 799.685 1394.19 799.848C1397.85 805.28 1398.45 1090.23 1393.78 1109.06C1391.62 1117.76 1382.16 1127.9 1374.15 1131.6C1355.11 1140.4 1328.32 1136.91 1307.67 1136.79V1116.37L1307.68 1111.82C1314.86 1111.94 1323.67 1111.17 1330.4 1111.55C1338.19 1111.99 1343.64 1109.03 1348.6 1108.85C1363.85 1105.52 1374.4 1089.84 1373.65 1074.51L1373.6 785.296L1373.68 779.664Z" fill="#0000FE"/>
<path d="M1373.6 785.296C1375.33 787.293 1377.73 790.012 1377.86 792.655C1378.42 804.42 1378.24 816.996 1378.24 828.728L1378.21 903.645L1378.2 1009.08C1378.23 1027.9 1378.49 1047.15 1377.95 1065.95C1377.81 1070.78 1376.93 1071.45 1373.65 1074.51L1373.6 785.296Z" fill="#717086"/>
<path d="M1307.68 1111.82C1314.86 1111.94 1323.67 1111.17 1330.4 1111.55C1338.19 1111.99 1343.64 1109.03 1348.6 1108.85L1348.7 1110.58C1343.18 1113.92 1315.95 1116.48 1307.67 1116.37L1307.68 1111.82Z" fill="#3838C3"/>
</svg>
